<svg xmlns="http://www.w3.org/2000/svg" viewBox="0 0 1600 900" role="img" aria-label="Fundo romantico de encerramento">
  <defs>
    <linearGradient id="sky" x1="0" y1="0" x2="1" y2="1">
      <stop offset="0" stop-color="#2e1d22"/>
      <stop offset="0.55" stop-color="#8f2635"/>
      <stop offset="1" stop-color="#f2a1b2"/>
    </linearGradient>
    <radialGradient id="sun" cx="50%" cy="36%" r="45%">
      <stop offset="0" stop-color="#fff7df" stop-opacity="0.78"/>
      <stop offset="1" stop-color="#fff7df" stop-opacity="0"/>
    </radialGradient>
  </defs>
  <rect width="1600" height="900" fill="url(#sky)"/>
  <rect width="1600" height="900" fill="url(#sun)"/>
  <path d="M0 650 C230 580 390 690 600 610 C820 526 970 650 1160 590 C1330 536 1450 560 1600 610 L1600 900 L0 900 Z" fill="#fff7f8" opacity="0.22"/>
  <path d="M760 430 C675 345 530 395 532 522 C534 649 698 680 760 596 C822 680 986 649 988 522 C990 395 845 345 760 430 Z" fill="#fff7f8" opacity="0.52"/>
</svg>
